%TF.GenerationSoftware,KiCad,Pcbnew,9.0.7*%
%TF.CreationDate,2026-07-15T11:03:38-03:00*%
%TF.ProjectId,c3-pico,63332d70-6963-46f2-9e6b-696361645f70,1.0*%
%TF.SameCoordinates,Original*%
%TF.FileFunction,Soldermask,Top*%
%TF.FilePolarity,Negative*%
%FSLAX46Y46*%
G04 Gerber Fmt 4.6, Leading zero omitted, Abs format (unit mm)*
G04 Created by KiCad (PCBNEW 9.0.7) date 2026-07-15 11:03:38*
%MOMM*%
%LPD*%
G01*
G04 APERTURE LIST*
G04 Aperture macros list*
%AMRoundRect*
0 Rectangle with rounded corners*
0 $1 Rounding radius*
0 $2 $3 $4 $5 $6 $7 $8 $9 X,Y pos of 4 corners*
0 Add a 4 corners polygon primitive as box body*
4,1,4,$2,$3,$4,$5,$6,$7,$8,$9,$2,$3,0*
0 Add four circle primitives for the rounded corners*
1,1,$1+$1,$2,$3*
1,1,$1+$1,$4,$5*
1,1,$1+$1,$6,$7*
1,1,$1+$1,$8,$9*
0 Add four rect primitives between the rounded corners*
20,1,$1+$1,$2,$3,$4,$5,0*
20,1,$1+$1,$4,$5,$6,$7,0*
20,1,$1+$1,$6,$7,$8,$9,0*
20,1,$1+$1,$8,$9,$2,$3,0*%
G04 Aperture macros list end*
%ADD10RoundRect,0.200000X-0.200000X-0.275000X0.200000X-0.275000X0.200000X0.275000X-0.200000X0.275000X0*%
%ADD11RoundRect,0.200000X0.275000X-0.200000X0.275000X0.200000X-0.275000X0.200000X-0.275000X-0.200000X0*%
%ADD12R,1.550000X1.000000*%
%ADD13R,1.700000X1.700000*%
%ADD14C,1.700000*%
%ADD15RoundRect,0.150000X-0.512500X-0.150000X0.512500X-0.150000X0.512500X0.150000X-0.512500X0.150000X0*%
%ADD16RoundRect,0.218750X0.218750X0.256250X-0.218750X0.256250X-0.218750X-0.256250X0.218750X-0.256250X0*%
%ADD17RoundRect,0.225000X-0.225000X-0.250000X0.225000X-0.250000X0.225000X0.250000X-0.225000X0.250000X0*%
%ADD18RoundRect,0.225000X0.250000X-0.225000X0.250000X0.225000X-0.250000X0.225000X-0.250000X-0.225000X0*%
%ADD19C,0.650000*%
%ADD20R,0.600000X1.450000*%
%ADD21R,0.300000X1.450000*%
%ADD22O,1.000000X2.100000*%
%ADD23O,1.000000X1.600000*%
%ADD24R,1.500000X0.900000*%
%ADD25C,0.600000*%
%ADD26R,2.900000X2.900000*%
G04 APERTURE END LIST*
D10*
%TO.C,R1*%
X111875000Y-125000000D03*
X113525000Y-125000000D03*
%TD*%
D11*
%TO.C,R4*%
X119500000Y-146325000D03*
X119500000Y-144675000D03*
%TD*%
D12*
%TO.C,SW1*%
X102375000Y-139150000D03*
X107625000Y-139150000D03*
X102375000Y-140850000D03*
X107625000Y-140850000D03*
%TD*%
D13*
%TO.C,J3*%
X125400000Y-111000000D03*
D14*
X125400000Y-113540000D03*
X125400000Y-116080000D03*
X125400000Y-118620000D03*
X125400000Y-121160000D03*
X125400000Y-123700000D03*
X125400000Y-126240000D03*
X125400000Y-128780000D03*
X125400000Y-131320000D03*
%TD*%
D15*
%TO.C,U2*%
X103862500Y-144550000D03*
X103862500Y-145500000D03*
X103862500Y-146450000D03*
X106137500Y-146450000D03*
X106137500Y-144550000D03*
%TD*%
D16*
%TO.C,LED1*%
X110787500Y-130000000D03*
X109212500Y-130000000D03*
%TD*%
D11*
%TO.C,R3*%
X117000000Y-146325000D03*
X117000000Y-144675000D03*
%TD*%
D17*
%TO.C,C1*%
X117725000Y-125000000D03*
X119275000Y-125000000D03*
%TD*%
D18*
%TO.C,C3*%
X104500000Y-130775000D03*
X104500000Y-129225000D03*
%TD*%
D19*
%TO.C,J1*%
X109810000Y-150900000D03*
X115590000Y-150900000D03*
D20*
X109450000Y-149455000D03*
X110250000Y-149455000D03*
D21*
X111450000Y-149455000D03*
X112450000Y-149455000D03*
X112950000Y-149455000D03*
X113950000Y-149455000D03*
D20*
X115150000Y-149455000D03*
X115950000Y-149455000D03*
X115950000Y-149455000D03*
X115150000Y-149455000D03*
D21*
X114450000Y-149455000D03*
X113450000Y-149455000D03*
X111950000Y-149455000D03*
X110950000Y-149455000D03*
D20*
X110250000Y-149455000D03*
X109450000Y-149455000D03*
D22*
X108380000Y-150370000D03*
D23*
X108380000Y-154550000D03*
D22*
X117020000Y-150370000D03*
D23*
X117020000Y-154550000D03*
%TD*%
D18*
%TO.C,C4*%
X101800000Y-146275000D03*
X101800000Y-144725000D03*
%TD*%
D17*
%TO.C,C2*%
X106225000Y-125000000D03*
X107775000Y-125000000D03*
%TD*%
D13*
%TO.C,J2*%
X100000000Y-111000000D03*
D14*
X100000000Y-113540000D03*
X100000000Y-116080000D03*
X100000000Y-118620000D03*
X100000000Y-121160000D03*
X100000000Y-123700000D03*
X100000000Y-126240000D03*
X100000000Y-128780000D03*
X100000000Y-131320000D03*
%TD*%
D16*
%TO.C,LED2*%
X117787500Y-130000000D03*
X116212500Y-130000000D03*
%TD*%
D10*
%TO.C,R6*%
X119175000Y-130000000D03*
X120825000Y-130000000D03*
%TD*%
%TO.C,R7*%
X119175000Y-133500000D03*
X120825000Y-133500000D03*
%TD*%
D18*
%TO.C,C5*%
X108500000Y-146275000D03*
X108500000Y-144725000D03*
%TD*%
D15*
%TO.C,U3*%
X111562500Y-134050000D03*
X111562500Y-135000000D03*
X111562500Y-135950000D03*
X113837500Y-135950000D03*
X113837500Y-135000000D03*
X113837500Y-134050000D03*
%TD*%
D10*
%TO.C,R5*%
X112175000Y-130000000D03*
X113825000Y-130000000D03*
%TD*%
D12*
%TO.C,SW2*%
X117375000Y-139150000D03*
X122625000Y-139150000D03*
X117375000Y-140850000D03*
X122625000Y-140850000D03*
%TD*%
D24*
%TO.C,U1*%
X103950000Y-110000000D03*
X103950000Y-111500000D03*
X103950000Y-113000000D03*
X103950000Y-114500000D03*
X103950000Y-116000000D03*
X103950000Y-117500000D03*
X103950000Y-119000000D03*
X103950000Y-120500000D03*
X103950000Y-122000000D03*
X121450000Y-122000000D03*
X121450000Y-120500000D03*
X121450000Y-119000000D03*
X121450000Y-117500000D03*
X121450000Y-116000000D03*
X121450000Y-114500000D03*
X121450000Y-113000000D03*
X121450000Y-111500000D03*
X121450000Y-110000000D03*
D25*
X112560000Y-115650000D03*
X112560000Y-116750000D03*
X113110000Y-115100000D03*
X113110000Y-116200000D03*
X113110000Y-117300000D03*
X113660000Y-115650000D03*
D26*
X113660000Y-116200000D03*
D25*
X113660000Y-116750000D03*
X114210000Y-115100000D03*
X114210000Y-116200000D03*
X114210000Y-117300000D03*
X114760000Y-115650000D03*
X114760000Y-116750000D03*
%TD*%
M02*
