M48
; DRILL file {KiCad 9.0.7} date 2026-07-15T11:03:38-0300
; FORMAT={-:-/ absolute / metric / decimal}
; #@! TF.CreationDate,2026-07-15T11:03:38-03:00
; #@! TF.GenerationSoftware,Kicad,Pcbnew,9.0.7
; #@! TF.FileFunction,MixedPlating,1,2
FMAT,2
METRIC
; #@! TA.AperFunction,Plated,PTH,ComponentDrill
T1C0.200
; #@! TA.AperFunction,Plated,PTH,ViaDrill
T2C0.300
; #@! TA.AperFunction,Plated,PTH,ComponentDrill
T3C0.600
; #@! TA.AperFunction,Plated,PTH,ComponentDrill
T4C1.000
; #@! TA.AperFunction,NonPlated,NPTH,ComponentDrill
T5C0.650
%
G90
G05
T1
X112.56Y-115.65
X112.56Y-116.75
X113.11Y-115.1
X113.11Y-116.2
X113.11Y-117.3
X113.66Y-115.65
X113.66Y-116.75
X114.21Y-115.1
X114.21Y-116.2
X114.21Y-117.3
X114.76Y-115.65
X114.76Y-116.75
T2
X102.346Y-122.197
X102.375Y-142.544
X105.044Y-145.5
X105.55Y-127.639
X107.687Y-125.99
X108.5Y-142.544
X109.54Y-148.175
X110.547Y-142.302
X110.771Y-136.837
X110.987Y-131.362
X111.27Y-127.473
X113.996Y-133.15
X116.08Y-141.555
X116.186Y-143.113
X116.191Y-128.743
X116.236Y-147.305
X116.258Y-131.548
X116.99Y-127.941
X119.073Y-125.99
X119.85Y-142.302
X122.532Y-142.399
X123.989Y-127.941
T4
X100.0Y-111.0
X100.0Y-113.54
X100.0Y-116.08
X100.0Y-118.62
X100.0Y-121.16
X100.0Y-123.7
X100.0Y-126.24
X100.0Y-128.78
X100.0Y-131.32
X125.4Y-111.0
X125.4Y-113.54
X125.4Y-116.08
X125.4Y-118.62
X125.4Y-121.16
X125.4Y-123.7
X125.4Y-126.24
X125.4Y-128.78
X125.4Y-131.32
T5
X109.81Y-150.9
X115.59Y-150.9
T3
X108.38Y-149.82G85X108.38Y-150.92
G05
X108.38Y-154.25G85X108.38Y-154.85
G05
X117.02Y-149.82G85X117.02Y-150.92
G05
X117.02Y-154.25G85X117.02Y-154.85
G05
M30
